<?xml version="1.0" encoding="utf-8"?>
<!-- Generator: Adobe Illustrator 21.0.0, SVG Export Plug-In . SVG Version: 6.00 Build 0)  -->
<svg version="1.1" id="Livello_1" xmlns="http://www.w3.org/2000/svg" xmlns:xlink="http://www.w3.org/1999/xlink" x="0px" y="0px"
	 viewBox="0 0 772 250" style="enable-background:new 0 0 772 250;" xml:space="preserve">
<style type="text/css">
	.st0{fill:#BEDEF0;}
	.st1{fill:#0076A7;}
	.st2{fill:#0B5375;}
	.st3{fill:none;}
	.st4{fill:#FD0000;}
	.st5{fill:#FFFFFF;}
</style>
<rect y="0" class="st0" width="772" height="250"/>
<g>
	<circle class="st1" cx="642.5" cy="125" r="108.9"/>
	<path class="st2" d="M672,123.1l-2.3-44.2l-9.2-15.2l-29.9-9.2l-14.3,1.8l-81.9,81.9c6.5,53.9,52.5,95.7,108.1,95.7
		c8.9,0,17.5-1.1,25.7-3.1l30.2-30.2l-11.3-31.6L672,123.1z"/>
	<path class="st3" d="M634.2,118.7l1.6-1.1C635.3,117.5,634.8,118,634.2,118.7z"/>
	<path class="st4" d="M582.4,117.7l-3.1-2.5C580.1,116.3,581.3,117.2,582.4,117.7z"/>
	<path class="st5" d="M691.7,115.2h-9.8V85.6c0-21.6-17.7-39.4-39.4-39.4c-21.6,0-39.4,17.7-39.4,39.4v29.5h-9.8
		c-4.9,0-9.8,4.9-9.8,9.8v68.9c0,4.9,4.9,9.8,9.8,9.8h98.4c4.9,0,9.8-4.9,9.8-9.8V125C701.6,120.1,696.6,115.2,691.7,115.2z
		 M662.2,115.2h-39.4V85.6c0-10.8,8.9-19.7,19.7-19.7c10.8,0,19.7,8.9,19.7,19.7V115.2z"/>
	<path class="st2" d="M652.4,184h-19.7l3.9-21.6c-4.9-2-8.9-7.9-8.9-12.8c0-7.9,6.9-14.8,14.8-14.8c7.9,0,14.8,6.9,14.8,14.8
		c0,5.9-3,10.8-8.9,12.8L652.4,184z"/>
</g>
<g>
	<path class="st2" d="M28.3,48.7h12.4c8.2,0,10.8,1.8,10.8,9.9v6.2c0,5.6-1.5,7.4-4.3,8c2.9,0.5,4.5,2.2,4.5,7.9v7.1
		c0,9.1-2.6,9.9-10.8,9.9H28.3V48.7z M35.3,69.8H41c2.1,0,3.5-0.4,3.5-3.6v-8c0-3.2-1.5-3.6-3.8-3.6h-5.4V69.8z M35.3,91.8H41
		c2.2,0,3.8-0.3,3.8-3.6v-9c0-3.2-1.8-3.5-4-3.5h-5.4V91.8z"/>
	<path class="st2" d="M56.7,47.3h6.7v50.4h-6.7V47.3z"/>
	<path class="st2" d="M80.7,58c8,0,9.9,2.5,9.9,9V89c0,6.4-2,9-9.9,9h-2.4c-8.1,0-9.9-2.5-9.9-9V66.9c0-6.5,1.9-9,9.9-9H80.7z
		 M80.7,92.3c2,0,3.3-0.6,3.3-3.4l0.1-22c0-2.9-1.3-3.4-3.3-3.4h-2.4c-2,0-3.3,0.5-3.3,3.4l-0.1,22c0,2.9,1.3,3.4,3.3,3.4H80.7z"/>
	<path class="st2" d="M107.6,58c8.1,0,9.9,2.5,9.9,9v6.7h-6.7V67c0-2.9-1.3-3.4-3.3-3.4h-2.2c-2,0-3.3,0.5-3.3,3.4v21.9
		c0,2.9,1.3,3.4,3.3,3.4h2.2c2,0,3.3-0.6,3.3-3.4v-7.3h6.7V89c0,6.4-1.9,9-9.9,9h-2.2c-8.1,0-9.9-2.5-9.9-9V66.9c0-6.5,1.9-9,9.9-9
		H107.6z"/>
	<path class="st2" d="M132.9,79.8h-4.5v17.9h-6.7V47.3h6.7v26.1h4.4l5.7-15.2h6.7l-6.9,18.3l7.4,21.2h-6.7L132.9,79.8z"/>
	<path class="st2" d="M159.3,48.7h12.9c8,0,10.4,1.8,10.4,9.5v13.3c0,7.8-2.5,9.5-10.4,9.5h-5.9v16.7h-7V48.7z M166.3,54.7v20.4h5.6
		c2,0,3.7-0.2,3.7-3.2v-14c0-3-1.7-3.2-3.7-3.2H166.3z"/>
	<path class="st2" d="M186.2,47.3h6.7v50.4h-6.7V47.3z"/>
	<path class="st2" d="M204.4,89c0,2,1,3.1,2.8,3.1h6.1V58.2h6.7v39.6c0,0-9.1,0.2-11.7,0.2H206c-5.1,0-8.3-2.1-8.3-7.9V58.2h6.7V89z
		"/>
	<path class="st2" d="M233.9,58h1.6c2.4,0,11.7,0.2,11.7,0.2v39.6c0,7.4-1.9,9-9.9,9h-2c-8,0-9.6-2.6-9.6-10v-1h6.2v2.5
		c0,2.7,1.1,3,2.9,3h2.7c2,0,3-0.4,3-3.3V94h-7.4c-5.1,0-8.3-2-8.3-7.8V66.5C224.9,60.7,228.8,58,233.9,58z M240.6,63.8h-6.2
		c-1.8,0-2.8,1.2-2.8,3.1v18.3c0,2,1,3.1,2.8,3.1h6.2V63.8z"/>
	<path class="st2" d="M252.2,48.4h6.9v6.3h-6.9V48.4z M252.3,58.2h6.7v39.6h-6.7V58.2z"/>
	<path class="st2" d="M279.6,66.9c0-1.9-1-3.1-2.8-3.1h-6.1v34H264V58.2c0,0,6.7-0.2,11.8-0.2h2.2c5.1,0,8.3,2,8.3,7.8v31.9h-6.7
		V66.9z"/>
	<path class="st2" d="M301,58c8,0,9.6,2.5,9.6,9v3.2h-6.3v-3.5c0-2.9-1.3-3-3.3-3h-0.7c-2,0-3.3,0.1-3.3,3v3.2
		c0,2.2,1.2,2.5,3.6,3.6l4.7,1.8c3.4,1.3,6,2.7,6,7.8v5.7c0,6.5-1.9,9.2-9.9,9.2h-1.1c-8.1,0-9.9-2.5-9.9-9v-3.6h6.7v3.9
		c0,2.9,1.3,3.1,3.3,3.1h1.1c2,0,3.3-0.5,3.3-3.4v-4.8c0-2.9-1.8-3.3-3.7-4.1l-4.6-1.9c-3.2-1.3-6-2.2-6-7.7v-3.4c0-6.5,1.9-9,9.9-9
		H301z"/>
	<path class="st2" d="M332.9,48.7v39.1c0,3.6,1,4.1,3.4,4.1h3.7c2.5,0,3.4-0.5,3.4-4.1V48.7h7v38.9c0,8.5-2.8,10.3-11.1,10.3H337
		c-8.3,0-11.1-1.8-11.1-10.3V48.7H332.9z"/>
	<path class="st2" d="M355.4,58.2c0,0,5.5-0.2,11.8-0.2h2.2c5.1,0,8.3,2.7,8.3,8.5V90c0,5.8-3.2,7.9-8.3,7.9h-2.2
		c-2.5,0-5.2-0.2-5.2-0.2v8.4h-6.7V58.2z M362.1,63.8v28.3h6.2c1.8,0,2.8-1.1,2.8-3.1V66.9c0-1.9-1-3.1-2.8-3.1H362.1z"/>
	<path class="st2" d="M382.6,65.8c0-5.8,3.2-7.6,8.3-7.6h7.4V47.3h6.7v50.4c0,0-7.2,0.2-11.8,0.2h-2.2c-5.1,0-8.3-2.1-8.3-7.9V65.8z
		 M398.2,63.8h-6.2c-1.8,0-2.8,1.2-2.8,3.1V89c0,2,1,3.1,2.8,3.1h6.2V63.8z"/>
	<path class="st2" d="M421.6,58c8,0,9.7,2.5,9.7,9v30.5c0,0-7.5,0.6-11.5,0.6h-2.1c-5.1,0-8.3-2.1-8.3-7.9v-9.5
		c0-5.8,3.2-7.8,8.3-7.8h6.9v-5.8c0-3.2-1.3-3.3-3.2-3.3h-1.3c-1.9,0-3.2,0-3.2,3.1v3.3h-6.2v-3c0-6.5,1.5-9,9.5-9H421.6z M416.2,89
		c0,2,0.7,3.1,2.5,3.1h6V77.7h-6c-1.8,0-2.5,1-2.5,2.9V89z"/>
	<path class="st2" d="M450.1,63.8h-5.5v26.1c0,1.3,0.3,2.2,1.9,2.2h4.2v5.7l-4.2,0.2c-6.7,0.2-8.5-1.3-8.5-7.8V63.8H435v-5.6h2.9
		v-8.8h6.7v8.8h5.5V63.8z"/>
	<path class="st2" d="M465.7,58c8,0,9.9,2.5,9.9,9v13.7l-15.3,0.1v8.1c0,2.9,1.3,3.4,3.3,3.4h2.5c2,0,3.3-0.5,3.3-3.4v-3.6h6.3V89
		c0,6.4-1.9,9-9.9,9h-2.1c-8.1,0-9.9-2.5-9.9-9V66.9c0-6.5,1.9-9,9.9-9H465.7z M460.3,67v8.1h8.7V67c0-2.9-1.3-3.4-3.3-3.4h-2.1
		C461.6,63.6,460.3,64.1,460.3,67z"/>
	<path class="st2" d="M489.6,58c8,0,9.6,2.5,9.6,9v3.2h-6.3v-3.5c0-2.9-1.3-3-3.3-3h-0.7c-2,0-3.3,0.1-3.3,3v3.2
		c0,2.2,1.2,2.5,3.6,3.6l4.7,1.8c3.4,1.3,6,2.7,6,7.8v5.7c0,6.5-1.9,9.2-9.9,9.2h-1.1c-8.1,0-9.9-2.5-9.9-9v-3.6h6.7v3.9
		c0,2.9,1.3,3.1,3.3,3.1h1.1c2,0,3.3-0.5,3.3-3.4v-4.8c0-2.9-1.7-3.3-3.7-4.1l-4.6-1.9c-3.2-1.3-6-2.2-6-7.7v-3.4c0-6.5,1.9-9,9.9-9
		H489.6z"/>
</g>
</svg>
