<?xml version="1.0" encoding="utf-8"?>
<!-- Generator: Adobe Illustrator 21.0.0, SVG Export Plug-In . SVG Version: 6.00 Build 0)  -->
<svg version="1.1" id="Livello_1" xmlns="http://www.w3.org/2000/svg" xmlns:xlink="http://www.w3.org/1999/xlink" x="0px" y="0px"
	 viewBox="0 0 256 256" style="enable-background:new 0 0 256 256;" xml:space="preserve">
<style type="text/css">
	.st0{fill:#0076A7;}
	.st1{fill:#0B5375;}
	.st2{fill:none;}
	.st3{fill:#FD0000;}
	.st4{fill:#FFFFFF;}
</style>
<circle class="st0" cx="128" cy="128" r="118.4"/>
<path class="st1" d="M160,125.9l-2.5-48l-10-16.5l-32.5-10l-15.5,2l-89,89c7.1,58.6,57,104,117.5,104c9.6,0,19-1.2,28-3.3l32.9-32.9
	l-12.3-34.3L160,125.9z"/>
<path class="st2" d="M118.9,121.1l1.7-1.2C120.1,119.9,119.6,120.4,118.9,121.1z"/>
<path class="st3" d="M62.7,120.1l-3.4-2.7C60.2,118.5,61.4,119.5,62.7,120.1z"/>
<path class="st4" d="M181.5,117.3h-10.7V85.2c0-23.5-19.3-42.8-42.8-42.8S85.2,61.7,85.2,85.2v32.1H74.5c-5.3,0-10.7,5.3-10.7,10.7
	v74.9c0,5.3,5.3,10.7,10.7,10.7h106.9c5.3,0,10.7-5.3,10.7-10.7V128C192.2,122.7,186.8,117.3,181.5,117.3z M149.4,117.3h-42.8V85.2
	c0-11.8,9.6-21.4,21.4-21.4s21.4,9.6,21.4,21.4V117.3z"/>
<path class="st1" d="M138.7,192.2h-21.4l4.3-23.5c-5.3-2.1-9.6-8.6-9.6-13.9c0-8.6,7.5-16,16-16s16,7.5,16,16
	c0,6.4-3.2,11.8-9.6,13.9L138.7,192.2z"/>
</svg>
